<?xml version="1.0" encoding="UTF-8" standalone="no"?>
<!DOCTYPE svg PUBLIC "-//W3C//DTD SVG 1.1//EN" "http://www.w3.org/Graphics/SVG/1.1/DTD/svg11.dtd">
<svg width="100%" height="100%" viewBox="0 0 512 512" version="1.1" xmlns="http://www.w3.org/2000/svg" xmlns:xlink="http://www.w3.org/1999/xlink" xml:space="preserve" xmlns:serif="http://www.serif.com/" style="fill-rule:evenodd;clip-rule:evenodd;stroke-linejoin:round;stroke-miterlimit:2;">
    <g transform="matrix(1.59006,0,0,1.59006,-103.354,-4.77019)">
        <g transform="matrix(0.628906,0,0,0.628906,65,3)">
            <path style="fill:#FFDD58" d="M273.655,360.525C220.367,369.584 167.882,336.689 153.613,283.435C152.184,278.104 155.353,272.616 160.684,271.187C166.015,269.759 171.503,272.927 172.931,278.258C185.216,324.105 232.411,351.354 278.258,339.069C283.32,337.713 288.522,340.5 290.258,345.347C290.351,345.606 290.434,345.872 290.507,346.144L304.798,399.477C315.845,399.243 326.969,403.338 335.393,411.761C351.784,428.153 351.784,454.768 335.393,471.16C319.001,487.551 292.386,487.551 275.994,471.16C259.603,454.768 259.603,428.153 275.994,411.761C278.876,408.88 282.073,406.505 285.475,404.637L273.655,360.525ZM290.136,457.018C281.55,448.431 281.55,434.49 290.136,425.904C298.723,417.317 312.664,417.317 321.25,425.904C329.837,434.49 329.837,448.431 321.25,457.018C312.664,465.604 298.723,465.604 290.136,457.018Z" />
        </g>
        <g transform="matrix(0.628906,0,0,0.628906,65,3)">
            <path style="fill:#E44354" d="M214.988,297.013C237.623,319.648 274.377,319.648 297.012,297.013C319.647,274.377 319.647,237.624 297.012,214.988C274.377,192.353 237.623,192.353 214.988,214.988C192.352,237.624 192.352,274.377 214.988,297.013ZM229.13,282.87C214.3,268.04 214.3,243.96 229.13,229.13C243.96,214.3 268.04,214.3 282.87,229.13C297.7,243.96 297.7,268.041 282.87,282.871C268.04,297.7 243.96,297.701 229.13,282.871L229.13,282.87Z" />
        </g>
        <g transform="matrix(0.628906,0,0,0.628906,65,3)">
            <path style="fill:#92d1fe" d="M107.346,226.523C102.025,236.207 92.917,243.793 81.41,246.877C59.019,252.876 35.969,239.568 29.97,217.177C23.97,194.786 37.278,171.737 59.669,165.737C82.06,159.737 105.11,173.045 111.109,195.436C112.164,199.372 112.622,203.329 112.539,207.209L156.651,219.028C175.45,168.35 230.18,139.344 283.434,153.614C288.765,155.042 291.934,160.53 290.505,165.861C289.077,171.192 283.589,174.361 278.258,172.932C232.411,160.648 185.215,187.896 172.931,233.743C171.575,238.804 166.559,241.916 161.494,240.996C161.223,240.947 160.951,240.886 160.68,240.813L107.346,226.523ZM64.845,185.055C76.574,181.913 88.648,188.884 91.791,200.612C94.934,212.341 87.963,224.415 76.234,227.558C64.505,230.701 52.431,223.73 49.288,212.001C46.145,200.272 53.116,188.198 64.845,185.055L64.845,185.055Z" />
        </g>
        <g transform="matrix(0.628906,0,0,0.628906,65,3)">
            <path style="fill:#4F953D" d="M337.693,188.448C372.182,230.067 369.937,291.968 330.952,330.953C327.049,334.855 320.713,334.855 316.81,330.953C312.907,327.05 312.907,320.713 316.81,316.811C350.372,283.248 350.372,228.752 316.81,195.189C313.105,191.484 312.917,185.585 316.247,181.658C316.425,181.448 316.614,181.243 316.812,181.044L355.855,142.001C350.129,132.551 348.113,120.87 351.196,109.363C357.196,86.972 380.245,73.665 402.637,79.664C425.028,85.664 438.335,108.714 432.336,131.105C426.336,153.496 403.286,166.804 380.895,160.804C376.959,159.749 373.303,158.167 369.985,156.156L337.693,188.448ZM413.017,125.928C409.874,137.657 397.801,144.628 386.072,141.485C374.343,138.343 367.372,126.269 370.515,114.54C373.657,102.811 385.731,95.84 397.46,98.983C409.189,102.125 416.16,114.199 413.017,125.928Z" />
        </g>
    </g>
</svg>