<?xml version="1.0" encoding="UTF-8" standalone="no"?>
<!DOCTYPE svg PUBLIC "-//W3C//DTD SVG 1.1//EN" "http://www.w3.org/Graphics/SVG/1.1/DTD/svg11.dtd">
<svg width="100%" height="100%" viewBox="0 0 512 512" version="1.1" xmlns="http://www.w3.org/2000/svg" xmlns:xlink="http://www.w3.org/1999/xlink" xml:space="preserve" xmlns:serif="http://www.serif.com/" style="fill-rule:evenodd;clip-rule:evenodd;stroke-linejoin:round;stroke-miterlimit:2;">
    <g transform="matrix(1.59006,0,0,1.59006,-103.354,-4.77019)">
        <rect x="65" y="3" width="322" height="322" style="fill:rgb(50,48,51);"/>
        <g transform="matrix(0.628906,0,0,0.628906,65,3)">
            <path d="M246.001,361.534C192.183,356.492 150,311.133 150,256C150,246.513 151.251,237.316 153.593,228.564C155.02,223.232 160.507,220.062 165.839,221.489C171.17,222.916 174.34,228.403 172.913,233.735C171.012,240.837 170,248.302 170,256C170,303.465 208.535,342 256,342C261.493,342 265.957,346.438 266,351.92C266.001,351.948 266.001,407.218 266.001,407.218C276.733,409.851 286.418,416.686 292.374,427.002C303.965,447.078 297.076,472.786 277.001,484.377C256.926,495.967 231.217,489.079 219.627,469.003C208.036,448.928 214.925,423.219 235,411.629C238.529,409.591 242.233,408.125 246.001,407.201L246.001,361.534ZM236.947,459.003C230.876,448.487 234.484,435.021 245,428.949C255.516,422.878 268.983,426.486 275.054,437.002C281.125,447.518 277.517,460.985 267.001,467.056C256.485,473.127 243.018,469.519 236.947,459.003ZM316.799,330.94L355.845,369.986C353.833,373.304 352.251,376.959 351.196,380.896C345.197,403.287 358.505,426.337 380.896,432.336C403.287,438.336 426.336,425.028 432.336,402.637C438.336,380.246 425.028,357.196 402.637,351.197C391.13,348.113 379.449,350.129 369.999,355.856L337.68,323.537C352.869,305.192 362,281.654 362,256C362,197.497 314.503,150 256,150C246.513,150 237.315,151.251 228.562,153.594C223.231,155.021 220.061,160.508 221.488,165.839C222.915,171.171 228.402,174.341 233.734,172.914C240.837,171.012 248.301,170 256,170C303.465,170 342,208.536 342,256C342,279.732 332.365,301.231 316.798,316.798C312.896,320.7 312.896,327.037 316.799,330.94ZM386.072,413.018C374.343,409.875 367.372,397.801 370.515,386.072C373.658,374.343 385.732,367.372 397.461,370.515C409.189,373.658 416.16,385.732 413.018,397.461C409.875,409.19 397.801,416.16 386.072,413.018ZM142.002,156.145L208.535,222.678C201.898,232.108 198,243.602 198,256C198,288.011 223.989,314 256,314C288.011,314 314,288.011 314,256C314,223.989 288.011,198 256,198C243.602,198 232.108,201.899 222.677,208.535L156.156,142.015C158.168,138.697 159.749,135.041 160.804,131.105C166.804,108.714 153.496,85.664 131.105,79.664L131.105,79.664C108.714,73.664 85.664,86.972 79.664,109.363C73.665,131.754 86.972,154.804 109.364,160.804C120.87,163.887 132.551,161.871 142.002,156.145ZM256,218C276.973,218 294,235.027 294,256C294,276.973 276.973,294 256,294C235.027,294 218,276.973 218,256C218,235.027 235.027,218 256,218ZM125.928,98.983C137.657,102.125 144.628,114.199 141.485,125.928C138.343,137.657 126.269,144.628 114.54,141.485C102.811,138.342 95.84,126.269 98.983,114.54C102.126,102.811 114.2,95.84 125.928,98.983Z" style="fill:white;"/>
        </g>
    </g>
</svg>
